<svg xmlns="http://www.w3.org/2000/svg" viewBox="0 0 1259.66 306.37">
  <defs>
    <style>
      .cls-1, .cls-7, .cls-8, .cls-9 {
        fill: #422f86;
      }

      .cls-1, .cls-2 {
        stroke: #422f86;
        stroke-miterlimit: 10;
        stroke-width: 4px;
      }

      .cls-2 {
        fill: none;
      }

      .cls-3 {
        fill: #ff8a30;
      }

      .cls-4 {
        font-size: 136.1px;
        fill: #fff;
        font-family: TimeBurner, TimeBurner;
      }

      .cls-5 {
        letter-spacing: -0.13em;
      }

      .cls-6 {
        letter-spacing: -0.02em;
      }

      .cls-7 {
        letter-spacing: -0.05em;
      }

      .cls-8 {
        letter-spacing: -0.05em;
      }
    </style>
  </defs>
  <title>logo-final</title>
  <g id="Layer_15" data-name="Layer 15">
    <rect class="cls-1" x="320.83" y="322.96" width="21" height="21" rx="10.5" ry="10.5" transform="translate(345.96 -192.86) rotate(90)"/>
    <line class="cls-1" x1="120.12" y1="139.46" x2="16.84" y2="139.46"/>
    <line class="cls-1" x1="40.49" y1="141.01" x2="40.49" y2="117.1"/>
    <rect class="cls-2" x="348.82" y="290.4" width="21" height="21" rx="10.5" ry="10.5" transform="translate(341.39 -253.42) rotate(90)"/>
    <rect class="cls-1" x="329.18" y="267.79" width="21" height="21" rx="10.5" ry="10.5"/>
    <line class="cls-1" x1="339.68" y1="170.67" x2="339.68" y2="273.95"/>
    <line class="cls-1" x1="339.68" y1="245.31" x2="319.38" y2="245.31"/>
    <rect class="cls-1" x="297.37" y="234.81" width="21" height="21" rx="10.5" ry="10.5"/>
    <rect class="cls-1" x="199.59" y="283.37" width="21" height="21" rx="10.5" ry="10.5"/>
    <line class="cls-1" x1="210.09" y1="186.25" x2="210.09" y2="289.53"/>
    <line class="cls-1" x1="210.09" y1="260.89" x2="189.79" y2="260.89"/>
    <rect class="cls-1" x="167.78" y="250.39" width="21" height="21" rx="10.5" ry="10.5"/>
    <rect class="cls-1" x="404.03" y="218.96" width="21" height="21" rx="10.5" ry="10.5" transform="translate(515.18 254.74) rotate(178.74)"/>
    <line class="cls-1" x1="98.07" y1="142.06" x2="95.8" y2="38.8"/>
    <line class="cls-1" x1="96.34" y1="61.25" x2="114.41" y2="60.85"/>
    <rect class="cls-1" x="433.23" y="245.75" width="21" height="21" rx="10.5" ry="10.5" transform="translate(574.17 307.67) rotate(178.74)"/>
    <rect class="cls-1" x="505.37" y="197" width="21" height="21" rx="10.5" ry="10.5" transform="translate(717.35 208.6) rotate(178.74)"/>
    <line class="cls-1" x1="199.41" y1="120.1" x2="197.14" y2="16.84"/>
    <line class="cls-1" x1="197.68" y1="39.29" x2="215.75" y2="38.89"/>
    <rect class="cls-1" x="534.57" y="223.79" width="21" height="21" rx="10.5" ry="10.5" transform="matrix(-1, 0.02, -0.02, -1, 776.34, 261.53)"/>
    <rect class="cls-1" x="616.19" y="204.42" width="21" height="21" rx="10.5" ry="10.5" transform="translate(939.14 221) rotate(178.74)"/>
    <line class="cls-1" x1="310.24" y1="127.52" x2="307.96" y2="24.26"/>
    <line class="cls-1" x1="308.5" y1="46.71" x2="326.58" y2="46.31"/>
    <rect class="cls-1" x="645.4" y="231.21" width="21" height="21" rx="10.5" ry="10.5" transform="translate(998.13 273.93) rotate(178.74)"/>
    <rect class="cls-2" x="248.41" y="254.11" width="21" height="21" rx="10.5" ry="10.5"/>
    <line class="cls-2" x1="258.91" y1="202.47" x2="258.91" y2="254.11"/>
    <rect class="cls-2" x="126.17" y="253.21" width="21" height="21" rx="10.5" ry="10.5"/>
    <line class="cls-2" x1="136.67" y1="201.57" x2="136.67" y2="253.21"/>
    <rect class="cls-2" x="468" y="217.65" width="21" height="21" rx="10.5" ry="10.5" transform="translate(638.17 261.29) rotate(-180)"/>
    <line class="cls-2" x1="159.67" y1="78.99" x2="159.67" y2="43.54"/>
    <rect class="cls-2" x="567.24" y="241.76" width="21" height="21" rx="10.5" ry="10.5" transform="translate(836.65 309.51) rotate(180)"/>
    <line class="cls-2" x1="258.91" y1="120.1" x2="258.91" y2="68.46"/>
    <rect class="cls-1" x="358.89" y="361.04" width="21" height="21" rx="10.5" ry="10.5" transform="translate(422.1 -192.85) rotate(90)"/>
    <line class="cls-1" x1="114.41" y1="176.54" x2="62.77" y2="176.54"/>
    <rect class="cls-2" x="334.15" y="395.61" width="19.51" height="19.51" rx="9.76" ry="9.76" transform="translate(-380.39 554.15) rotate(-89.98)"/>
    <line class="cls-2" x1="139.84" y1="210.4" x2="36.56" y2="210.37"/>
    <line class="cls-2" x1="57.2" y1="210.39" x2="57.2" y2="234.81"/>
    <rect class="cls-1" x="365.26" y="430.5" width="19.51" height="19.51" rx="9.76" ry="9.76" transform="translate(-384.19 620.12) rotate(-89.98)"/>
  </g>
  <g id="Layer_13" data-name="Layer 13">
    <rect class="cls-3" x="77.14" y="78.99" width="280.89" height="144.79" rx="5" ry="5"/>
  </g>
  <g id="Layer_12" data-name="Layer 12">
    <text class="cls-4" transform="translate(89.12 200.16)"><tspan class="cls-5">T</tspan><tspan class="cls-6" x="57.3" y="0">e</tspan><tspan x="138.55" y="0">ch </tspan><tspan class="cls-7" x="297.65" y="0">E</tspan><tspan class="cls-8" x="362.84" y="0">v</tspan><tspan class="cls-9" x="430.75" y="0">ents</tspan></text>
  </g>
</svg>
